<svg
   width="255"
   zoomAndPan="magnify"
   viewBox="0 0 191.25 43.500003"
   height="58"
   preserveAspectRatio="xMidYMid"
   version="1.0"
   id="svg84"
   xml:space="preserve"
   sodipodi:docname="logo.svg"
   inkscape:version="1.4.3 (0d15f75, 2025-12-25)"
   xmlns:inkscape="http://www.inkscape.org/namespaces/inkscape"
   xmlns:sodipodi="http://sodipodi.sourceforge.net/DTD/sodipodi-0.dtd"
   xmlns="http://www.w3.org/2000/svg"
   xmlns:svg="http://www.w3.org/2000/svg"><sodipodi:namedview
     id="namedview1"
     pagecolor="#ffffff"
     bordercolor="#000000"
     borderopacity="0.25"
     inkscape:showpageshadow="2"
     inkscape:pageopacity="0.0"
     inkscape:pagecheckerboard="0"
     inkscape:deskcolor="#d1d1d1"
     inkscape:zoom="3.0872638"
     inkscape:cx="120.00918"
     inkscape:cy="61.381214"
     inkscape:window-width="1920"
     inkscape:window-height="1009"
     inkscape:window-x="1912"
     inkscape:window-y="-8"
     inkscape:window-maximized="1"
     inkscape:current-layer="svg84" /><defs
     id="defs42"><clipPath
       id="fa6b3777d5-1"><path
         d="M 112.5,182.02344 H 171 v 56.25 h -58.5 z m 0,0"
         clip-rule="nonzero"
         id="path8-7" /></clipPath><clipPath
       id="d2cc94ddab-1"><path
         d="M 0.5,24 H 58.683594 V 56 H 0.5 Z m 0,0"
         clip-rule="nonzero"
         id="path9-1" /></clipPath><clipPath
       id="efa3973e09-5"><path
         d="M 13,0.0234375 H 58.683594 V 25 H 13 Z m 0,0"
         clip-rule="nonzero"
         id="path10-2" /></clipPath><clipPath
       id="c17a3b7460-7"><rect
         x="0"
         width="59"
         y="0"
         height="57"
         id="rect10-6" /></clipPath><clipPath
       id="6c1ebe9f34-1"><path
         d="m 149,182.29687 h 98.98437 v 55.5 H 149 Z m 0,0"
         clip-rule="nonzero"
         id="path12-4" /></clipPath><clipPath
       clipPathUnits="userSpaceOnUse"
       id="clipPath3"><path
         d="M 0.50000002,0.79297234 H 150.5 V 101.29297 H 0.50000002 Z m 0,0"
         clip-rule="nonzero"
         id="path4"
         style="stroke-width:0.999998" /></clipPath></defs><g
     id="g6"
     transform="matrix(0.43458113,0,0,0.4343722,0.00169747,-0.29523015)"><g
       id="g1"><g
         id="g2"><text
           xml:space="preserve"
           style="font-size:63.36px;line-height:0;font-family:Inter, Poppins, 'Segoe UI', Arial, sans-serif;-inkscape-font-specification:'Inter, Poppins, Segoe UI, Arial, sans-serif';text-align:center;letter-spacing:2.25px;word-spacing:9.9px;writing-mode:lr-tb;direction:ltr;text-anchor:middle;fill:#efcf39;fill-opacity:1;stroke:#727272;stroke-width:0;stroke-linecap:round;stroke-linejoin:bevel;stroke-dasharray:none;stroke-opacity:1;paint-order:markers stroke fill"
           x="302.64447"
           y="50.874268"
           id="text27-8"><tspan
             id="tspan27-5"
             style="font-style:normal;font-variant:normal;font-weight:bold;font-stretch:normal;font-size:63.36px;font-family:Dubai;-inkscape-font-specification:'Dubai Bold';letter-spacing:2.25px;word-spacing:9.9px;fill:#efcf39;fill-opacity:1;stroke:#727272;stroke-width:0;stroke-dasharray:none;stroke-opacity:1"
             x="305.11951"
             y="50.874268">NiBoDom</tspan></text><text
           xml:space="preserve"
           style="font-size:41.4996px;line-height:0;font-family:Inter, Poppins, 'Segoe UI', Arial, sans-serif;-inkscape-font-specification:'Inter, Poppins, Segoe UI, Arial, sans-serif';text-align:center;letter-spacing:6.3px;word-spacing:7.785px;writing-mode:lr-tb;direction:ltr;text-anchor:middle;fill:#b09411;fill-opacity:1;stroke:#727272;stroke-width:0;stroke-linecap:round;stroke-linejoin:bevel;stroke-dasharray:none;stroke-opacity:1;paint-order:markers stroke fill"
           x="257.49179"
           y="101.16618"
           id="text28-7"
           transform="scale(1.0083307,0.99173812)"><tspan
             id="tspan28-6"
             style="font-style:normal;font-variant:normal;font-weight:normal;font-stretch:normal;line-height:0;font-family:Dubai;-inkscape-font-specification:Dubai;letter-spacing:6.3px;word-spacing:7.785px;fill:#b09411;fill-opacity:1;stroke:#727272;stroke-width:0;stroke-dasharray:none;stroke-opacity:1"
             x="260.64175"
             y="101.16618">Services</tspan></text></g><g
         id="g5"
         transform="translate(4.444594,116.47709)"><g
           clip-path="url(#clipPath3)"
           id="g21-5"
           transform="translate(-4.9485,-116.5982)"><path
             fill="#b09411"
             d="M 92.742188,5.113281 66.515625,28.898438 H 62.457031 V 10.542969 H 36.453125 V 28.898438 H 0.503906 v 9.660156 H 46.113281 V 20.203125 h 6.683594 v 18.355469 h 17.382813 l 0.03125,0.03125 0.03516,-0.03125 h 0.09766 V 38.46875 L 96.855469,14.421875 136.07031,56.503906 v 44.441404 h 9.66016 V 62.265625 L 150.5,57.820312 102.11719,5.902344 97.492188,0.800781 l -0.06641,0.0625 -0.05859,-0.0625 z m 0,0"
             fill-opacity="1"
             fill-rule="evenodd"
             id="path20-7" /></g><g
           clip-path="url(#fa6b3777d5-1)"
           id="g29-6"
           transform="translate(-116.9485,-253.5982)"><g
             transform="translate(112,182)"
             id="g28-1"><g
               clip-path="url(#c17a3b7460-7)"
               id="g27-8"><g
                 clip-path="url(#d2cc94ddab-1)"
                 id="g25-9"><path
                   fill="#40845e"
                   d="m 19.152344,48.453125 c 0.792968,-0.269531 1.535156,-0.582031 2.304687,-0.777344 2.386719,-0.609375 4.828125,-0.664062 7.269531,-0.683593 2.863282,-0.01953 5.722657,-0.01172 8.585938,-0.09766 1.476562,-0.04687 2.941406,-0.191406 4.398438,-0.425781 2.109374,-0.363281 3.914062,-1.308594 5.410156,-2.839844 2.667968,-2.613281 5.304687,-5.253906 7.953125,-7.882812 0.761719,-0.757813 1.523437,-1.507813 2.273437,-2.28125 2.375,-2.445313 1.46875,-6.304688 -1.753906,-7.394532 -0.515625,-0.171874 -1.101562,-0.132812 -1.652344,-0.21875 -0.207031,-0.01562 -0.386718,-0.08984 -0.546875,-0.222656 -1.875,-2.035156 -4.679687,-2.125 -6.660156,-0.175781 -1.691406,1.671875 -3.375,3.355469 -5.042969,5.050781 C 41.5,30.722656 41.269531,30.769531 41.007812,30.648438 40.3125,30.433594 39.597656,30.300781 38.871094,30.257812 35.730469,30.214844 32.585938,30.246094 29.445312,30.230469 29.121094,30.222656 28.8125,30.144531 28.519531,30 26.117188,28.773438 23.566406,28.105469 20.871094,27.996094 16.460938,27.859375 12.820312,29.53125 9.851562,32.746094 9.671875,32.941406 9.5,33.144531 9.328125,33.34375 c -0.160156,0.1875 -0.316406,0.375 -0.4375,0.519531 C 8.425781,33.570312 7.945312,33.308594 7.445312,33.085938 6.558594,32.765625 5.71875,32.992188 4.984375,33.546875 c -1.332031,0.996094 -2.652344,2.011719 -3.96875,3.027344 -0.578125,0.441406 -0.679687,1.070312 -0.28125,1.589843 0.394531,0.507813 1.027344,0.566407 1.613281,0.125 1.214844,-0.917968 2.425782,-1.84375 3.636719,-2.769531 0.726563,-0.550781 0.890625,-0.527343 1.410156,0.203125 3.308594,4.667969 6.617188,9.335938 9.929688,14 0.460937,0.652344 0.441406,0.8125 -0.191407,1.300782 -1.269531,0.972656 -2.542968,1.945312 -3.820312,2.914062 -0.1875,0.121094 -0.328125,0.285156 -0.414062,0.492188 -0.08984,0.207031 -0.109376,0.421874 -0.0625,0.640624 0.02734,0.21875 0.121093,0.40625 0.277343,0.558594 0.15625,0.15625 0.339844,0.246094 0.558594,0.269532 0.328125,0.03516 0.628906,-0.03516 0.90625,-0.210938 1.417969,-1.039062 2.816406,-2.101562 4.195313,-3.191406 0.269531,-0.207032 0.488281,-0.457032 0.660156,-0.75 0.175781,-0.289063 0.289062,-0.601563 0.347656,-0.933594 0.05469,-0.335938 0.05078,-0.667969 -0.01563,-1 -0.06641,-0.332031 -0.191406,-0.640625 -0.375,-0.925781 -0.0625,-0.105469 -0.117187,-0.214844 -0.238281,-0.433594 z M 10.160156,35.847656 c 0.09375,-0.136718 0.15625,-0.246094 0.234375,-0.34375 0.269531,-0.339844 0.535157,-0.6875 0.820313,-1.011718 2.160156,-2.460938 4.800781,-4.023438 8.113281,-4.277344 3.042969,-0.234375 5.878906,0.519531 8.570313,1.917968 0.359374,0.1875 0.742187,0.285157 1.148437,0.292969 3.34375,0.02344 6.6875,0.0078 10.03125,0.01563 0.375,-0.0078 0.742187,0.05859 1.09375,0.199219 0.347656,0.140625 0.660156,0.34375 0.929687,0.609375 0.269532,0.265625 0.476563,0.570312 0.621094,0.921875 0.144532,0.347656 0.21875,0.710937 0.21875,1.089844 0,0.375 -0.07422,0.738281 -0.21875,1.089843 -0.148437,0.347657 -0.355468,0.652344 -0.625,0.917969 -0.269531,0.265625 -0.582031,0.46875 -0.933594,0.605469 -0.347656,0.140625 -0.714843,0.207031 -1.089843,0.199219 -3.46875,0.01172 -6.9375,0.0039 -10.40625,0.0039 -0.785157,0 -1.296875,0.4375 -1.296875,1.097656 -0.0039,0.660157 0.507812,1.101563 1.292968,1.101563 3.4375,0.0039 6.871094,0.0039 10.308594,0 0.984375,0 1.949219,-0.175782 2.742188,-0.765625 0.632812,-0.523438 1.226562,-1.085938 1.777344,-1.691407 1.269531,-1.257812 2.535156,-2.523437 3.796874,-3.792968 1.757813,-1.757813 3.519532,-3.515625 5.28125,-5.273438 0.203126,-0.226562 0.445313,-0.402344 0.71875,-0.53125 0.277344,-0.125 0.566407,-0.195312 0.871094,-0.207031 0.304688,-0.01172 0.597656,0.03516 0.882813,0.144531 0.285156,0.105469 0.539062,0.265625 0.757812,0.472656 0.222657,0.210938 0.394531,0.453126 0.515625,0.734376 0.121094,0.277343 0.1875,0.570312 0.191406,0.871093 0.0039,0.304688 -0.04687,0.597657 -0.160156,0.882813 -0.113281,0.28125 -0.277344,0.53125 -0.492187,0.746094 -0.746094,0.789062 -1.527344,1.550781 -2.300781,2.316406 -2.625,2.609375 -5.242188,5.226562 -7.882813,7.816406 -1.390625,1.367188 -3.050781,2.265625 -5.019531,2.429688 -2.023438,0.171874 -4.058594,0.308593 -6.089844,0.351562 -3.667969,0.08594 -7.339844,-0.125 -10.996094,0.296875 -1.859375,0.214844 -3.683594,0.601563 -5.355468,1.492187 -0.269532,0.140626 -0.40625,0.07813 -0.570313,-0.15625 -0.789063,-1.136718 -1.59375,-2.261718 -2.394531,-3.390624 -1.6875,-2.382813 -3.378906,-4.765626 -5.085938,-7.175781 z m 41.171875,-9.128906 -7.1875,7.550781 -0.964843,-2.035156 c 1.804687,-1.84375 3.589843,-3.730469 5.449218,-5.53125 0.753906,-0.730469 2.039063,-0.609375 2.703125,0.01563 z m 0,0"
                   fill-opacity="1"
                   fill-rule="nonzero"
                   id="path24-2" /></g><g
                 clip-path="url(#efa3973e09-5)"
                 id="g26-7"><path
                   fill="#40845e"
                   d="m 42.679688,15.476562 c 0.664062,0.671876 1.273437,1.269532 1.863281,1.886719 0.328125,0.375 0.742187,0.546875 1.242187,0.519531 0.636719,-0.01953 1.273438,-0.01172 1.910156,0 C 48.125,17.898438 48.484375,17.75 48.777344,17.429688 49.382812,16.789062 50,16.15625 50.671875,15.457031 c 0.652344,0.671875 1.230469,1.273438 1.816406,1.867188 0.730469,0.738281 1.25,0.738281 1.980469,0.0078 1.15625,-1.152343 2.3125,-2.308593 3.464844,-3.464843 1.007812,-1.015626 1.007812,-2.125 -0.0078,-3.144532 C 56.855469,9.640625 55.765625,8.578125 54.699219,7.484375 54.191406,6.949219 53.5625,6.691406 52.824219,6.714844 c -5.054688,0.00781 -10.109375,0 -15.160157,0.011718 C 37.507812,6.742188 37.367188,6.710938 37.234375,6.632812 37.101562,6.554688 37,6.445312 36.9375,6.304688 34.785156,2.644531 31.621094,0.480469 27.371094,0.0859375 26.636719,0.015625 25.902344,0.015625 25.171875,0.078125 c -0.734375,0.0625 -1.457031,0.1875 -2.167969,0.378906 -0.707031,0.195313 -1.394531,0.449219 -2.0625,0.761719 -0.664062,0.316406 -1.292968,0.691406 -1.890625,1.121094 -0.597656,0.429687 -1.152343,0.90625 -1.664062,1.4375 C 16.875,4.304688 16.414062,4.875 16.003906,5.488281 15.597656,6.097656 15.246094,6.742188 14.953125,7.417969 14.65625,8.09375 14.425781,8.789062 14.257812,9.503906 c -0.167968,0.714844 -0.269531,1.441406 -0.308593,2.175782 -0.03906,0.734374 -0.0078,1.46875 0.08594,2.199218 0.09375,0.730469 0.25,1.445313 0.472656,2.144532 0.222657,0.703124 0.507813,1.378906 0.851563,2.03125 0.34375,0.648437 0.742187,1.261718 1.195313,1.84375 0.457031,0.578124 0.957031,1.109374 1.507812,1.597656 0.550781,0.488281 1.140625,0.925781 1.769531,1.308594 0.628907,0.382812 1.285157,0.703124 1.972657,0.96875 0.6875,0.265624 1.390624,0.464843 2.117187,0.601562 0.722656,0.140625 1.449219,0.210938 2.1875,0.21875 0.734375,0.0039 1.464844,-0.05469 2.191406,-0.179688 0.722657,-0.125 1.433594,-0.3125 2.125,-0.566406 0.691407,-0.253906 1.351563,-0.5625 1.988281,-0.9375 0.636719,-0.371094 1.230469,-0.796875 1.792969,-1.273437 0.558594,-0.480469 1.070313,-1.003907 1.53125,-1.574219 0.464844,-0.570312 0.875,-1.179688 1.230469,-1.824219 0.05078,-0.125 0.132812,-0.21875 0.246094,-0.289062 0.113281,-0.06641 0.234375,-0.09375 0.367187,-0.07813 0.636719,0.02344 1.277344,-0.01563 1.914063,0.01563 0.582031,0.05078 1.066406,-0.148438 1.445312,-0.59375 0.546875,-0.609375 1.132813,-1.1875 1.738282,-1.816407 z M 56.34375,12.1875 53.429688,15.15625 c -0.01953,-0.01172 -0.03906,-0.02344 -0.05859,-0.03906 -0.574219,-0.570313 -1.144532,-1.140626 -1.71875,-1.710938 -0.707032,-0.703125 -1.238282,-0.699219 -1.953125,0.01172 -0.527344,0.527343 -1.089844,1.023437 -1.570313,1.59375 -0.195312,0.253906 -0.441406,0.441406 -0.738281,0.566406 -0.296875,0.121094 -0.605469,0.160156 -0.921875,0.117187 -0.351562,0 -0.652344,-0.128906 -0.894531,-0.378906 -0.640625,-0.679687 -1.3125,-1.328125 -1.976563,-1.984375 -0.609375,-0.601562 -1.171875,-0.605469 -1.78125,-0.0039 -0.699218,0.691406 -1.378906,1.398437 -2.089844,2.070313 -0.183593,0.160156 -0.398437,0.25 -0.640624,0.269531 -0.792969,0.03125 -1.585938,0.02344 -2.378907,0.0078 -0.289062,-0.01953 -0.554687,0.04687 -0.796875,0.203125 -0.242187,0.160156 -0.414062,0.371094 -0.511718,0.644532 -0.183594,0.398437 -0.390626,0.785156 -0.625,1.15625 -0.234376,0.371093 -0.488282,0.726562 -0.769532,1.0625 -0.28125,0.339843 -0.578125,0.660156 -0.902344,0.957031 C 32.78125,20 32.441406,20.277344 32.085938,20.53125 c -0.359376,0.253906 -0.730469,0.484375 -1.117188,0.691406 -0.390625,0.207032 -0.789062,0.386719 -1.199219,0.539063 -0.410156,0.15625 -0.828125,0.28125 -1.257812,0.382812 -0.425781,0.09766 -0.859375,0.167969 -1.296875,0.210938 -0.4375,0.04687 -0.875,0.05859 -1.3125,0.04687 -0.4375,-0.01563 -0.875,-0.05859 -1.308594,-0.128906 -0.433594,-0.07031 -0.859375,-0.167969 -1.277344,-0.292969 -0.421875,-0.128907 -0.832031,-0.28125 -1.234375,-0.460938 -0.398437,-0.179687 -0.785156,-0.382812 -1.160156,-0.613281 -0.375,-0.230469 -0.730469,-0.484375 -1.070313,-0.761719 C 19.511719,19.867188 19.1875,19.570312 18.886719,19.25 18.585938,18.933594 18.304688,18.59375 18.046875,18.242188 17.789062,17.886719 17.554688,17.515625 17.347656,17.128906 17.136719,16.742188 16.953125,16.347656 16.796875,15.9375 c -0.160156,-0.410156 -0.289063,-0.828125 -0.394531,-1.253906 -0.101563,-0.429688 -0.175782,-0.859375 -0.222656,-1.296875 -0.04688,-0.433594 -0.06641,-0.875 -0.05469,-1.3125 0.0078,-0.4375 0.04687,-0.875 0.113281,-1.308594 0.06641,-0.433594 0.164063,-0.859375 0.285157,-1.28125 C 16.644531,9.0625 16.796875,8.648438 16.972656,8.25 c 0.175782,-0.402344 0.378906,-0.792969 0.605469,-1.167969 0.226563,-0.375 0.476563,-0.734375 0.75,-1.078125 0.273437,-0.34375 0.570313,-0.667968 0.886719,-0.972656 0.3125,-0.304688 0.648437,-0.585938 1,-0.847656 C 20.570312,3.921875 20.9375,3.6875 21.320312,3.472656 21.707031,3.261719 22.101562,3.074219 22.507812,2.914062 22.917969,2.75 23.335938,2.617188 23.761719,2.511719 24.1875,2.402344 24.617188,2.324219 25.054688,2.273438 26.09375,2.144531 27.128906,2.179688 28.160156,2.375 c 1.03125,0.199219 2.007813,0.550781 2.925782,1.054688 0.921874,0.503906 1.742187,1.136718 2.464843,1.902343 0.71875,0.761719 1.304688,1.617188 1.757813,2.566407 0.359375,0.761718 0.847656,1.035156 1.664062,1.03125 5.195313,-0.023438 10.390625,-0.011719 15.585938,-0.00391 0.234375,-0.019531 0.445312,0.035157 0.640625,0.167969 1.078125,1.027344 2.128906,2.085938 3.144531,3.09375 z m 0,0"
                   fill-opacity="1"
                   fill-rule="nonzero"
                   id="path25-9" /></g><path
                 fill="#40845e"
                 d="M 29.1875,12.3125 C 29.1875,12 29.16016,11.691406 29.09766,11.386719 29.039062,11.082031 28.949219,10.785156 28.832031,10.5 28.710938,10.210938 28.566406,9.9375 28.394531,9.679688 28.21875,9.421875 28.023438,9.183594 27.804688,8.960938 27.585938,8.742188 27.347656,8.546875 27.085938,8.375 26.828125,8.199219 26.554688,8.054688 26.269531,7.9375 25.980469,7.816406 25.6875,7.726562 25.378906,7.667969 c -0.304687,-0.0625 -0.609375,-0.09375 -0.921875,-0.09375 -0.3125,0 -0.617187,0.03125 -0.921875,0.09375 -0.304687,0.058593 -0.601562,0.148437 -0.890625,0.269531 -0.285156,0.117188 -0.558593,0.265625 -0.816406,0.4375 -0.257813,0.171875 -0.496094,0.371094 -0.71875,0.589844 -0.21875,0.21875 -0.414063,0.460937 -0.585937,0.71875 -0.171876,0.257812 -0.320313,0.53125 -0.4375,0.820312 -0.117188,0.285156 -0.207032,0.582032 -0.269532,0.886719 -0.05859,0.304687 -0.08984,0.613281 -0.08594,0.925781 0,0.308594 0.03125,0.617188 0.08984,0.921875 0.0625,0.304688 0.152344,0.601563 0.273438,0.886719 0.117188,0.289062 0.265625,0.558594 0.4375,0.816406 0.175781,0.257813 0.371094,0.5 0.589844,0.71875 0.222656,0.21875 0.460937,0.414063 0.71875,0.585938 0.261718,0.171875 0.535156,0.316406 0.820312,0.433594 0.289063,0.121093 0.585938,0.207031 0.890625,0.269531 0.304688,0.05859 0.613281,0.08594 0.921875,0.08594 0.3125,0 0.617188,-0.03516 0.921875,-0.09375 0.300781,-0.0625 0.597657,-0.152344 0.882813,-0.273437 0.285156,-0.121094 0.554687,-0.265625 0.8125,-0.4375 0.257812,-0.171875 0.496094,-0.371094 0.710937,-0.589844 0.21875,-0.21875 0.414063,-0.457031 0.585938,-0.714844 0.171875,-0.253906 0.320312,-0.527343 0.4375,-0.8125 0.121093,-0.285156 0.210937,-0.582031 0.269531,-0.882812 0.0625,-0.304688 0.09375,-0.609375 0.09375,-0.917969 z M 24.480469,9.761719 c 0.335937,0 0.660156,0.070312 0.96875,0.203125 0.3125,0.128906 0.582031,0.316406 0.820312,0.554687 0.234375,0.242188 0.414063,0.519531 0.539063,0.828125 0.128906,0.3125 0.1875,0.636719 0.1875,0.976563 -0.0039,0.335937 -0.07031,0.65625 -0.203125,0.96875 -0.132813,0.308593 -0.316407,0.582031 -0.558594,0.816406 -0.238281,0.238281 -0.515625,0.417969 -0.828125,0.542969 -0.308594,0.125 -0.632812,0.1875 -0.972656,0.1875 -0.335938,-0.0039 -0.65625,-0.07031 -0.96875,-0.203125 -0.308594,-0.128907 -0.582032,-0.316407 -0.816406,-0.554688 -0.238282,-0.242187 -0.417969,-0.515625 -0.546876,-0.828125 -0.125,-0.3125 -0.1875,-0.636718 -0.183593,-0.972656 -0.0039,-0.335938 0.0625,-0.664062 0.191406,-0.976562 0.132813,-0.3125 0.316406,-0.585938 0.558594,-0.824219 0.242187,-0.238281 0.519531,-0.417969 0.835937,-0.542969 0.3125,-0.125 0.640625,-0.183594 0.976563,-0.179688 z m 0,0"
                 fill-opacity="1"
                 fill-rule="nonzero"
                 id="path26-5" /></g></g></g><g
           clip-path="url(#6c1ebe9f34-1)"
           id="g31-4"
           transform="matrix(-1,0,0,1,279.96442,-253.5982)"
           style="stroke:#40845e;stroke-width:1.0875;stroke-dasharray:none;stroke-opacity:1"><path
             fill="#3e825c"
             d="m 155.41406,237.44141 c -3.42969,-0.13672 -5.82422,-0.35547 -5.94531,-0.54688 -0.29297,-0.46094 0.0781,-0.59375 1.30078,-0.46484 0.58594,0.0625 2.85547,0.18359 5.03906,0.26953 7.11719,0.28125 14.4336,-0.19531 20.75391,-1.35547 4.31641,-0.79297 9.59375,-2.33203 13.46875,-3.92578 2.12891,-0.8711 6.3125,-2.96094 8.19141,-4.08594 l 1.35937,-0.8125 -1.04297,-0.55859 c -5.60156,-3.00782 -10.6289,-6.84766 -15.46484,-11.80469 -7.15235,-7.33594 -10.4961,-14.58594 -9.49219,-20.58203 0.26172,-1.56641 0.53516,-2.38672 1.21875,-3.67188 1.08594,-2.03906 2.67188,-3.55078 4.85938,-4.63281 3.95703,-1.95703 8.78125,-1.83594 13.08984,0.32422 2.64844,1.32812 4.35156,2.88672 6.29687,5.76172 0.10938,0.16015 0.1836,0.1914 0.23047,0.0898 0.15235,-0.33984 1.41407,-2.0664 2.15235,-2.94922 1.54687,-1.84375 4.03906,-3.6914 6.20703,-4.60156 3.59375,-1.50781 7.22265,-1.53516 10.21875,-0.082 3.21484,1.5625 5.18359,4.76562 5.48047,8.91797 0.41406,5.83203 -1.91407,12.01562 -7.21485,19.17969 -3.53906,4.78515 -9.01953,10.22656 -13.375,13.28125 -0.82812,0.58203 -1.51172,1.09375 -1.51562,1.14062 -0.0156,0.17578 3.13281,1.39453 5.55859,2.14453 5.11328,1.58985 10.5586,2.35156 17.60938,2.47656 6.63672,0.11719 13.08203,-0.36718 20.63672,-1.55468 1.10937,-0.17188 2.09375,-0.28516 2.1914,-0.2461 0.10156,0.0352 0.16016,0.19141 0.13672,0.35157 -0.0352,0.26562 -0.16797,0.30468 -1.80859,0.5625 -4.17188,0.64843 -8.63672,1.15234 -12.90235,1.45703 -2.91406,0.20312 -10.5625,0.20703 -13.02734,0 -7.14063,-0.59766 -12.76172,-1.91797 -18.36328,-4.31641 l -0.91016,-0.39062 -0.54297,0.36718 c -0.29687,0.19922 -1.36718,0.83594 -2.375,1.41407 -8.70312,4.98437 -18.55468,7.79296 -30.35547,8.64843 -3.37109,0.24219 -8.37109,0.32813 -11.66406,0.19532 z m 45.66016,-11.91016 c 7.78906,-5.30859 15.52344,-14.07031 19.13281,-21.67188 3.20313,-6.74609 3.32031,-13.00781 0.31641,-16.97265 -2.79297,-3.6836 -8.40235,-4.48828 -13.41797,-1.92188 -1.69531,0.86719 -2.73047,1.63282 -4.2461,3.14453 -1.51953,1.51954 -3.35937,4.03907 -3.23046,4.4336 0.0352,0.10547 0.26171,0.70312 0.5039,1.33203 0.72266,1.86328 0.9961,3.47656 0.94531,5.56641 -0.043,1.70312 -0.0625,1.80859 -0.44921,2.59375 -0.49219,0.98828 -1.03125,1.40625 -1.84766,1.41796 -1.09375,0.0156 -1.78516,-0.73437 -2.12109,-2.30078 -0.35938,-1.67968 0.29687,-4.78125 1.64453,-7.76562 0.21484,-0.47656 0.39062,-0.9375 0.39062,-1.02344 0,-0.35547 -1.5664,-2.49219 -2.53906,-3.46484 -4.71094,-4.71094 -12.41406,-5.67578 -17.53906,-2.19532 -0.40625,0.27735 -1.1836,0.97266 -1.71875,1.54688 -0.77344,0.82031 -1.10938,1.30859 -1.59766,2.32031 -0.83984,1.73047 -1.02344,2.48047 -1.10547,4.51563 -0.0781,2.04687 0.12891,3.49609 0.80078,5.57812 1.45313,4.5 4.3086,8.6875 9.33594,13.69922 3.71484,3.70313 7.30078,6.60547 11.09375,8.96875 1.95703,1.22266 4.53516,2.60156 4.85938,2.60156 0.10937,0 0.46484,-0.18359 0.78906,-0.40234 z M 199.5,202.42969 c 1.25391,-1.12891 1.25,-4.72657 -0.008,-8.23828 l -0.33594,-0.94141 -0.35547,0.79687 c -1.1875,2.65625 -1.75391,5.65235 -1.375,7.27735 0.28516,1.23828 1.31641,1.78906 2.07422,1.10547 z m 0,0"
             fill-opacity="1"
             fill-rule="nonzero"
             id="path30-3"
             style="stroke:#40845e;stroke-width:1.0875;stroke-dasharray:none;stroke-opacity:1" /></g></g></g></g></svg>
